M48
;GenerationSoftware,Autodesk,EAGLE,9.7.0*%
;CreationDate,2021-11-02T11:48:20Z*%
FMAT,2
ICI,OFF
METRIC,TZ,000.000
T5C0.350
T4C0.600
T3C0.700
T2C1.016
%
G90
M71
T2
X82677Y44831
X82677Y47371
X85217Y44831
X85217Y47371
X87757Y44831
X87757Y47371
X90297Y44831
X90297Y47371
X85217Y25146
T3
X84972Y40640
X84972Y39370
X86242Y40640
X86242Y39370
X87512Y40640
X87512Y39370
X88782Y40640
X88782Y39370
X90052Y40640
X90052Y39370
T4
X97155Y36576
X90805Y36576
T5
X87782Y35966
X79375Y31877
X81153Y27661
X83668Y31852
X84582Y33071
X88138Y35052
X79858Y40538
X86868Y36271
M30