G04 EAGLE Gerber RS-274X export*
G75*
%MOMM*%
%FSLAX34Y34*%
%LPD*%
%INTop Copper*%
%IPPOS*%
%AMOC8*
5,1,8,0,0,1.08239X$1,22.5*%
G01*
G04 Define Apertures*
%ADD10C,0.299000*%
%ADD11R,1.108000X1.108000*%
%ADD12R,0.560000X0.629100*%
%ADD13R,0.300000X0.800000*%
%ADD14R,0.800000X0.300000*%
%ADD15R,2.750000X2.750000*%
%ADD16R,1.208000X1.208000*%
%ADD17C,1.208000*%
%ADD18P,1.64956X8X22.5*%
%ADD19R,6.000000X0.410000*%
%ADD20C,0.152400*%
%ADD21C,0.756400*%
D10*
X519050Y501760D02*
X913850Y501760D01*
X916050Y501760D01*
X916050Y229760D02*
X913850Y229760D01*
X519050Y229760D01*
X511550Y237260D02*
X511550Y494260D01*
X511552Y494441D01*
X511559Y494622D01*
X511570Y494803D01*
X511585Y494984D01*
X511605Y495164D01*
X511629Y495344D01*
X511657Y495523D01*
X511690Y495701D01*
X511727Y495878D01*
X511768Y496055D01*
X511813Y496230D01*
X511863Y496405D01*
X511917Y496578D01*
X511975Y496749D01*
X512037Y496920D01*
X512104Y497088D01*
X512174Y497255D01*
X512248Y497421D01*
X512327Y497584D01*
X512409Y497745D01*
X512495Y497905D01*
X512585Y498062D01*
X512679Y498217D01*
X512776Y498370D01*
X512878Y498520D01*
X512982Y498668D01*
X513091Y498814D01*
X513202Y498956D01*
X513318Y499096D01*
X513436Y499233D01*
X513558Y499368D01*
X513683Y499499D01*
X513811Y499627D01*
X513942Y499752D01*
X514077Y499874D01*
X514214Y499992D01*
X514354Y500108D01*
X514496Y500219D01*
X514642Y500328D01*
X514790Y500432D01*
X514940Y500534D01*
X515093Y500631D01*
X515248Y500725D01*
X515405Y500815D01*
X515565Y500901D01*
X515726Y500983D01*
X515889Y501062D01*
X516055Y501136D01*
X516222Y501206D01*
X516390Y501273D01*
X516561Y501335D01*
X516732Y501393D01*
X516905Y501447D01*
X517080Y501497D01*
X517255Y501542D01*
X517432Y501583D01*
X517609Y501620D01*
X517787Y501653D01*
X517966Y501681D01*
X518146Y501705D01*
X518326Y501725D01*
X518507Y501740D01*
X518688Y501751D01*
X518869Y501758D01*
X519050Y501760D01*
X511550Y237260D02*
X511552Y237079D01*
X511559Y236898D01*
X511570Y236717D01*
X511585Y236536D01*
X511605Y236356D01*
X511629Y236176D01*
X511657Y235997D01*
X511690Y235819D01*
X511727Y235642D01*
X511768Y235465D01*
X511813Y235290D01*
X511863Y235115D01*
X511917Y234942D01*
X511975Y234771D01*
X512037Y234600D01*
X512104Y234432D01*
X512174Y234265D01*
X512248Y234099D01*
X512327Y233936D01*
X512409Y233775D01*
X512495Y233615D01*
X512585Y233458D01*
X512679Y233303D01*
X512776Y233150D01*
X512878Y233000D01*
X512982Y232852D01*
X513091Y232706D01*
X513202Y232564D01*
X513318Y232424D01*
X513436Y232287D01*
X513558Y232152D01*
X513683Y232021D01*
X513811Y231893D01*
X513942Y231768D01*
X514077Y231646D01*
X514214Y231528D01*
X514354Y231412D01*
X514496Y231301D01*
X514642Y231192D01*
X514790Y231088D01*
X514940Y230986D01*
X515093Y230889D01*
X515248Y230795D01*
X515405Y230705D01*
X515565Y230619D01*
X515726Y230537D01*
X515889Y230458D01*
X516055Y230384D01*
X516222Y230314D01*
X516390Y230247D01*
X516561Y230185D01*
X516732Y230127D01*
X516905Y230073D01*
X517080Y230023D01*
X517255Y229978D01*
X517432Y229937D01*
X517609Y229900D01*
X517787Y229867D01*
X517966Y229839D01*
X518146Y229815D01*
X518326Y229795D01*
X518507Y229780D01*
X518688Y229769D01*
X518869Y229762D01*
X519050Y229760D01*
X916050Y229760D02*
X916231Y229762D01*
X916412Y229769D01*
X916593Y229780D01*
X916774Y229795D01*
X916954Y229815D01*
X917134Y229839D01*
X917313Y229867D01*
X917491Y229900D01*
X917668Y229937D01*
X917845Y229978D01*
X918020Y230023D01*
X918195Y230073D01*
X918368Y230127D01*
X918539Y230185D01*
X918710Y230247D01*
X918878Y230314D01*
X919045Y230384D01*
X919211Y230458D01*
X919374Y230537D01*
X919535Y230619D01*
X919695Y230705D01*
X919852Y230795D01*
X920007Y230889D01*
X920160Y230986D01*
X920310Y231088D01*
X920458Y231192D01*
X920604Y231301D01*
X920746Y231412D01*
X920886Y231528D01*
X921023Y231646D01*
X921158Y231768D01*
X921289Y231893D01*
X921417Y232021D01*
X921542Y232152D01*
X921664Y232287D01*
X921782Y232424D01*
X921898Y232564D01*
X922009Y232706D01*
X922118Y232852D01*
X922222Y233000D01*
X922324Y233150D01*
X922421Y233303D01*
X922515Y233458D01*
X922605Y233615D01*
X922691Y233775D01*
X922773Y233936D01*
X922852Y234099D01*
X922926Y234265D01*
X922996Y234432D01*
X923063Y234600D01*
X923125Y234771D01*
X923183Y234942D01*
X923237Y235115D01*
X923287Y235290D01*
X923332Y235465D01*
X923373Y235642D01*
X923410Y235819D01*
X923443Y235997D01*
X923471Y236176D01*
X923495Y236356D01*
X923515Y236536D01*
X923530Y236717D01*
X923541Y236898D01*
X923548Y237079D01*
X923550Y237260D01*
X923550Y494260D02*
X923548Y494441D01*
X923541Y494622D01*
X923530Y494803D01*
X923515Y494984D01*
X923495Y495164D01*
X923471Y495344D01*
X923443Y495523D01*
X923410Y495701D01*
X923373Y495878D01*
X923332Y496055D01*
X923287Y496230D01*
X923237Y496405D01*
X923183Y496578D01*
X923125Y496749D01*
X923063Y496920D01*
X922996Y497088D01*
X922926Y497255D01*
X922852Y497421D01*
X922773Y497584D01*
X922691Y497745D01*
X922605Y497905D01*
X922515Y498062D01*
X922421Y498217D01*
X922324Y498370D01*
X922222Y498520D01*
X922118Y498668D01*
X922009Y498814D01*
X921898Y498956D01*
X921782Y499096D01*
X921664Y499233D01*
X921542Y499368D01*
X921417Y499499D01*
X921289Y499627D01*
X921158Y499752D01*
X921023Y499874D01*
X920886Y499992D01*
X920746Y500108D01*
X920604Y500219D01*
X920458Y500328D01*
X920310Y500432D01*
X920160Y500534D01*
X920007Y500631D01*
X919852Y500725D01*
X919695Y500815D01*
X919535Y500901D01*
X919374Y500983D01*
X919211Y501062D01*
X919045Y501136D01*
X918878Y501206D01*
X918710Y501273D01*
X918539Y501335D01*
X918368Y501393D01*
X918195Y501447D01*
X918020Y501497D01*
X917845Y501542D01*
X917668Y501583D01*
X917491Y501620D01*
X917313Y501653D01*
X917134Y501681D01*
X916954Y501705D01*
X916774Y501725D01*
X916593Y501740D01*
X916412Y501751D01*
X916231Y501758D01*
X916050Y501760D01*
X916050Y507760D02*
X916376Y507756D01*
X916702Y507744D01*
X917028Y507725D01*
X917353Y507697D01*
X917677Y507662D01*
X918001Y507618D01*
X918323Y507567D01*
X918644Y507508D01*
X918963Y507442D01*
X919281Y507368D01*
X919597Y507286D01*
X919910Y507196D01*
X920222Y507099D01*
X920531Y506995D01*
X920837Y506883D01*
X921141Y506763D01*
X921441Y506637D01*
X921739Y506503D01*
X922033Y506362D01*
X922324Y506214D01*
X922611Y506059D01*
X922894Y505897D01*
X923173Y505728D01*
X923448Y505552D01*
X923719Y505370D01*
X923985Y505182D01*
X924247Y504987D01*
X924504Y504786D01*
X924755Y504578D01*
X925002Y504365D01*
X925244Y504146D01*
X925480Y503921D01*
X925711Y503690D01*
X925936Y503454D01*
X926155Y503212D01*
X926368Y502965D01*
X926576Y502714D01*
X926777Y502457D01*
X926972Y502195D01*
X927160Y501929D01*
X927342Y501658D01*
X927518Y501383D01*
X927687Y501104D01*
X927849Y500821D01*
X928004Y500534D01*
X928152Y500243D01*
X928293Y499949D01*
X928427Y499651D01*
X928553Y499351D01*
X928673Y499047D01*
X928785Y498741D01*
X928889Y498432D01*
X928986Y498120D01*
X929076Y497807D01*
X929158Y497491D01*
X929232Y497173D01*
X929298Y496854D01*
X929357Y496533D01*
X929408Y496211D01*
X929452Y495887D01*
X929487Y495563D01*
X929515Y495238D01*
X929534Y494912D01*
X929546Y494586D01*
X929550Y494260D01*
X916050Y507760D02*
X519050Y507760D01*
X518724Y507756D01*
X518398Y507744D01*
X518072Y507725D01*
X517747Y507697D01*
X517423Y507662D01*
X517099Y507618D01*
X516777Y507567D01*
X516456Y507508D01*
X516137Y507442D01*
X515819Y507368D01*
X515503Y507286D01*
X515190Y507196D01*
X514878Y507099D01*
X514569Y506995D01*
X514263Y506883D01*
X513959Y506763D01*
X513659Y506637D01*
X513361Y506503D01*
X513067Y506362D01*
X512776Y506214D01*
X512489Y506059D01*
X512206Y505897D01*
X511927Y505728D01*
X511652Y505552D01*
X511381Y505370D01*
X511115Y505182D01*
X510853Y504987D01*
X510596Y504786D01*
X510345Y504578D01*
X510098Y504365D01*
X509856Y504146D01*
X509620Y503921D01*
X509389Y503690D01*
X509164Y503454D01*
X508945Y503212D01*
X508732Y502965D01*
X508524Y502714D01*
X508323Y502457D01*
X508128Y502195D01*
X507940Y501929D01*
X507758Y501658D01*
X507582Y501383D01*
X507413Y501104D01*
X507251Y500821D01*
X507096Y500534D01*
X506948Y500243D01*
X506807Y499949D01*
X506673Y499651D01*
X506547Y499351D01*
X506427Y499047D01*
X506315Y498741D01*
X506211Y498432D01*
X506114Y498120D01*
X506024Y497807D01*
X505942Y497491D01*
X505868Y497173D01*
X505802Y496854D01*
X505743Y496533D01*
X505692Y496211D01*
X505648Y495887D01*
X505613Y495563D01*
X505585Y495238D01*
X505566Y494912D01*
X505554Y494586D01*
X505550Y494260D01*
X505550Y237260D01*
X505554Y236934D01*
X505566Y236608D01*
X505585Y236282D01*
X505613Y235957D01*
X505648Y235633D01*
X505692Y235309D01*
X505743Y234987D01*
X505802Y234666D01*
X505868Y234347D01*
X505942Y234029D01*
X506024Y233713D01*
X506114Y233400D01*
X506211Y233088D01*
X506315Y232779D01*
X506427Y232473D01*
X506547Y232169D01*
X506673Y231869D01*
X506807Y231571D01*
X506948Y231277D01*
X507096Y230986D01*
X507251Y230699D01*
X507413Y230416D01*
X507582Y230137D01*
X507758Y229862D01*
X507940Y229591D01*
X508128Y229325D01*
X508323Y229063D01*
X508524Y228806D01*
X508732Y228555D01*
X508945Y228308D01*
X509164Y228066D01*
X509389Y227830D01*
X509620Y227599D01*
X509856Y227374D01*
X510098Y227155D01*
X510345Y226942D01*
X510596Y226734D01*
X510853Y226533D01*
X511115Y226338D01*
X511381Y226150D01*
X511652Y225968D01*
X511927Y225792D01*
X512206Y225623D01*
X512489Y225461D01*
X512776Y225306D01*
X513067Y225158D01*
X513361Y225017D01*
X513659Y224883D01*
X513959Y224757D01*
X514263Y224637D01*
X514569Y224525D01*
X514878Y224421D01*
X515190Y224324D01*
X515503Y224234D01*
X515819Y224152D01*
X516137Y224078D01*
X516456Y224012D01*
X516777Y223953D01*
X517099Y223902D01*
X517423Y223858D01*
X517747Y223823D01*
X518072Y223795D01*
X518398Y223776D01*
X518724Y223764D01*
X519050Y223760D01*
X916050Y223760D01*
X916376Y223764D01*
X916702Y223776D01*
X917028Y223795D01*
X917353Y223823D01*
X917677Y223858D01*
X918001Y223902D01*
X918323Y223953D01*
X918644Y224012D01*
X918963Y224078D01*
X919281Y224152D01*
X919597Y224234D01*
X919910Y224324D01*
X920222Y224421D01*
X920531Y224525D01*
X920837Y224637D01*
X921141Y224757D01*
X921441Y224883D01*
X921739Y225017D01*
X922033Y225158D01*
X922324Y225306D01*
X922611Y225461D01*
X922894Y225623D01*
X923173Y225792D01*
X923448Y225968D01*
X923719Y226150D01*
X923985Y226338D01*
X924247Y226533D01*
X924504Y226734D01*
X924755Y226942D01*
X925002Y227155D01*
X925244Y227374D01*
X925480Y227599D01*
X925711Y227830D01*
X925936Y228066D01*
X926155Y228308D01*
X926368Y228555D01*
X926576Y228806D01*
X926777Y229063D01*
X926972Y229325D01*
X927160Y229591D01*
X927342Y229862D01*
X927518Y230137D01*
X927687Y230416D01*
X927849Y230699D01*
X928004Y230986D01*
X928152Y231277D01*
X928293Y231571D01*
X928427Y231869D01*
X928553Y232169D01*
X928673Y232473D01*
X928785Y232779D01*
X928889Y233088D01*
X928986Y233400D01*
X929076Y233713D01*
X929158Y234029D01*
X929232Y234347D01*
X929298Y234666D01*
X929357Y234987D01*
X929408Y235309D01*
X929452Y235633D01*
X929487Y235957D01*
X929515Y236282D01*
X929534Y236608D01*
X929546Y236934D01*
X929550Y237260D01*
X935550Y494260D02*
X935544Y494731D01*
X935527Y495202D01*
X935499Y495672D01*
X935459Y496142D01*
X935408Y496610D01*
X935345Y497078D01*
X935272Y497543D01*
X935187Y498006D01*
X935091Y498468D01*
X934983Y498927D01*
X934865Y499383D01*
X934736Y499836D01*
X934596Y500286D01*
X934445Y500732D01*
X934283Y501175D01*
X934110Y501613D01*
X933927Y502048D01*
X933734Y502477D01*
X933530Y502902D01*
X933316Y503322D01*
X933092Y503737D01*
X932858Y504146D01*
X932615Y504549D01*
X932361Y504946D01*
X932098Y505337D01*
X931826Y505722D01*
X931544Y506100D01*
X931254Y506471D01*
X930954Y506834D01*
X930646Y507191D01*
X930329Y507540D01*
X930004Y507881D01*
X929671Y508214D01*
X929330Y508539D01*
X928981Y508856D01*
X928624Y509164D01*
X928261Y509464D01*
X927890Y509754D01*
X927512Y510036D01*
X927127Y510308D01*
X926736Y510571D01*
X926339Y510825D01*
X925936Y511068D01*
X925527Y511302D01*
X925112Y511526D01*
X924692Y511740D01*
X924267Y511944D01*
X923838Y512137D01*
X923403Y512320D01*
X922965Y512493D01*
X922522Y512655D01*
X922076Y512806D01*
X921626Y512946D01*
X921173Y513075D01*
X920717Y513193D01*
X920258Y513301D01*
X919796Y513397D01*
X919333Y513482D01*
X918868Y513555D01*
X918400Y513618D01*
X917932Y513669D01*
X917462Y513709D01*
X916992Y513737D01*
X916521Y513754D01*
X916050Y513760D01*
X519050Y513760D01*
X518579Y513754D01*
X518108Y513737D01*
X517638Y513709D01*
X517168Y513669D01*
X516700Y513618D01*
X516232Y513555D01*
X515767Y513482D01*
X515304Y513397D01*
X514842Y513301D01*
X514383Y513193D01*
X513927Y513075D01*
X513474Y512946D01*
X513024Y512806D01*
X512578Y512655D01*
X512135Y512493D01*
X511697Y512320D01*
X511262Y512137D01*
X510833Y511944D01*
X510408Y511740D01*
X509988Y511526D01*
X509573Y511302D01*
X509164Y511068D01*
X508761Y510825D01*
X508364Y510571D01*
X507973Y510308D01*
X507588Y510036D01*
X507210Y509754D01*
X506839Y509464D01*
X506476Y509164D01*
X506119Y508856D01*
X505770Y508539D01*
X505429Y508214D01*
X505096Y507881D01*
X504771Y507540D01*
X504454Y507191D01*
X504146Y506834D01*
X503846Y506471D01*
X503556Y506100D01*
X503274Y505722D01*
X503002Y505337D01*
X502739Y504946D01*
X502485Y504549D01*
X502242Y504146D01*
X502008Y503737D01*
X501784Y503322D01*
X501570Y502902D01*
X501366Y502477D01*
X501173Y502048D01*
X500990Y501613D01*
X500817Y501175D01*
X500655Y500732D01*
X500504Y500286D01*
X500364Y499836D01*
X500235Y499383D01*
X500117Y498927D01*
X500009Y498468D01*
X499913Y498006D01*
X499828Y497543D01*
X499755Y497078D01*
X499692Y496610D01*
X499641Y496142D01*
X499601Y495672D01*
X499573Y495202D01*
X499556Y494731D01*
X499550Y494260D01*
X499550Y237260D01*
X499556Y236789D01*
X499573Y236318D01*
X499601Y235848D01*
X499641Y235378D01*
X499692Y234910D01*
X499755Y234442D01*
X499828Y233977D01*
X499913Y233514D01*
X500009Y233052D01*
X500117Y232593D01*
X500235Y232137D01*
X500364Y231684D01*
X500504Y231234D01*
X500655Y230788D01*
X500817Y230345D01*
X500990Y229907D01*
X501173Y229472D01*
X501366Y229043D01*
X501570Y228618D01*
X501784Y228198D01*
X502008Y227783D01*
X502242Y227374D01*
X502485Y226971D01*
X502739Y226574D01*
X503002Y226183D01*
X503274Y225798D01*
X503556Y225420D01*
X503846Y225049D01*
X504146Y224686D01*
X504454Y224329D01*
X504771Y223980D01*
X505096Y223639D01*
X505429Y223306D01*
X505770Y222981D01*
X506119Y222664D01*
X506476Y222356D01*
X506839Y222056D01*
X507210Y221766D01*
X507588Y221484D01*
X507973Y221212D01*
X508364Y220949D01*
X508761Y220695D01*
X509164Y220452D01*
X509573Y220218D01*
X509988Y219994D01*
X510408Y219780D01*
X510833Y219576D01*
X511262Y219383D01*
X511697Y219200D01*
X512135Y219027D01*
X512578Y218865D01*
X513024Y218714D01*
X513474Y218574D01*
X513927Y218445D01*
X514383Y218327D01*
X514842Y218219D01*
X515304Y218123D01*
X515767Y218038D01*
X516232Y217965D01*
X516700Y217902D01*
X517168Y217851D01*
X517638Y217811D01*
X518108Y217783D01*
X518579Y217766D01*
X519050Y217760D01*
X916050Y217760D01*
X916521Y217766D01*
X916992Y217783D01*
X917462Y217811D01*
X917932Y217851D01*
X918400Y217902D01*
X918868Y217965D01*
X919333Y218038D01*
X919796Y218123D01*
X920258Y218219D01*
X920717Y218327D01*
X921173Y218445D01*
X921626Y218574D01*
X922076Y218714D01*
X922522Y218865D01*
X922965Y219027D01*
X923403Y219200D01*
X923838Y219383D01*
X924267Y219576D01*
X924692Y219780D01*
X925112Y219994D01*
X925527Y220218D01*
X925936Y220452D01*
X926339Y220695D01*
X926736Y220949D01*
X927127Y221212D01*
X927512Y221484D01*
X927890Y221766D01*
X928261Y222056D01*
X928624Y222356D01*
X928981Y222664D01*
X929330Y222981D01*
X929671Y223306D01*
X930004Y223639D01*
X930329Y223980D01*
X930646Y224329D01*
X930954Y224686D01*
X931254Y225049D01*
X931544Y225420D01*
X931826Y225798D01*
X932098Y226183D01*
X932361Y226574D01*
X932615Y226971D01*
X932858Y227374D01*
X933092Y227783D01*
X933316Y228198D01*
X933530Y228618D01*
X933734Y229043D01*
X933927Y229472D01*
X934110Y229907D01*
X934283Y230345D01*
X934445Y230788D01*
X934596Y231234D01*
X934736Y231684D01*
X934865Y232137D01*
X934983Y232593D01*
X935091Y233052D01*
X935187Y233514D01*
X935272Y233977D01*
X935345Y234442D01*
X935408Y234910D01*
X935459Y235378D01*
X935499Y235848D01*
X935527Y236318D01*
X935544Y236789D01*
X935550Y237260D01*
X941550Y494260D02*
X941543Y494876D01*
X941520Y495492D01*
X941483Y496107D01*
X941431Y496721D01*
X941364Y497334D01*
X941282Y497944D01*
X941186Y498553D01*
X941075Y499159D01*
X940949Y499762D01*
X940809Y500363D01*
X940654Y500959D01*
X940485Y501552D01*
X940302Y502140D01*
X940104Y502724D01*
X939893Y503302D01*
X939667Y503876D01*
X939428Y504444D01*
X939175Y505006D01*
X938909Y505561D01*
X938629Y506110D01*
X938336Y506653D01*
X938030Y507187D01*
X937711Y507715D01*
X937380Y508234D01*
X937036Y508746D01*
X936680Y509249D01*
X936312Y509743D01*
X935932Y510228D01*
X935540Y510703D01*
X935137Y511170D01*
X934723Y511626D01*
X934298Y512072D01*
X933862Y512508D01*
X933416Y512933D01*
X932960Y513347D01*
X932493Y513750D01*
X932018Y514142D01*
X931533Y514522D01*
X931039Y514890D01*
X930536Y515246D01*
X930024Y515590D01*
X929505Y515921D01*
X928977Y516240D01*
X928443Y516546D01*
X927900Y516839D01*
X927351Y517119D01*
X926796Y517385D01*
X926234Y517638D01*
X925666Y517877D01*
X925092Y518103D01*
X924514Y518314D01*
X923930Y518512D01*
X923342Y518695D01*
X922749Y518864D01*
X922153Y519019D01*
X921552Y519159D01*
X920949Y519285D01*
X920343Y519396D01*
X919734Y519492D01*
X919124Y519574D01*
X918511Y519641D01*
X917897Y519693D01*
X917282Y519730D01*
X916666Y519753D01*
X916050Y519760D01*
X519050Y519760D01*
X518434Y519753D01*
X517818Y519730D01*
X517203Y519693D01*
X516589Y519641D01*
X515976Y519574D01*
X515366Y519492D01*
X514757Y519396D01*
X514151Y519285D01*
X513548Y519159D01*
X512947Y519019D01*
X512351Y518864D01*
X511758Y518695D01*
X511170Y518512D01*
X510586Y518314D01*
X510008Y518103D01*
X509434Y517877D01*
X508866Y517638D01*
X508304Y517385D01*
X507749Y517119D01*
X507200Y516839D01*
X506657Y516546D01*
X506123Y516240D01*
X505595Y515921D01*
X505076Y515590D01*
X504564Y515246D01*
X504061Y514890D01*
X503567Y514522D01*
X503082Y514142D01*
X502607Y513750D01*
X502140Y513347D01*
X501684Y512933D01*
X501238Y512508D01*
X500802Y512072D01*
X500377Y511626D01*
X499963Y511170D01*
X499560Y510703D01*
X499168Y510228D01*
X498788Y509743D01*
X498420Y509249D01*
X498064Y508746D01*
X497720Y508234D01*
X497389Y507715D01*
X497070Y507187D01*
X496764Y506653D01*
X496471Y506110D01*
X496191Y505561D01*
X495925Y505006D01*
X495672Y504444D01*
X495433Y503876D01*
X495207Y503302D01*
X494996Y502724D01*
X494798Y502140D01*
X494615Y501552D01*
X494446Y500959D01*
X494291Y500363D01*
X494151Y499762D01*
X494025Y499159D01*
X493914Y498553D01*
X493818Y497944D01*
X493736Y497334D01*
X493669Y496721D01*
X493617Y496107D01*
X493580Y495492D01*
X493557Y494876D01*
X493550Y494260D01*
X493550Y237260D01*
X493557Y236644D01*
X493580Y236028D01*
X493617Y235413D01*
X493669Y234799D01*
X493736Y234186D01*
X493818Y233576D01*
X493914Y232967D01*
X494025Y232361D01*
X494151Y231758D01*
X494291Y231157D01*
X494446Y230561D01*
X494615Y229968D01*
X494798Y229380D01*
X494996Y228796D01*
X495207Y228218D01*
X495433Y227644D01*
X495672Y227076D01*
X495925Y226514D01*
X496191Y225959D01*
X496471Y225410D01*
X496764Y224867D01*
X497070Y224333D01*
X497389Y223805D01*
X497720Y223286D01*
X498064Y222774D01*
X498420Y222271D01*
X498788Y221777D01*
X499168Y221292D01*
X499560Y220817D01*
X499963Y220350D01*
X500377Y219894D01*
X500802Y219448D01*
X501238Y219012D01*
X501684Y218587D01*
X502140Y218173D01*
X502607Y217770D01*
X503082Y217378D01*
X503567Y216998D01*
X504061Y216630D01*
X504564Y216274D01*
X505076Y215930D01*
X505595Y215599D01*
X506123Y215280D01*
X506657Y214974D01*
X507200Y214681D01*
X507749Y214401D01*
X508304Y214135D01*
X508866Y213882D01*
X509434Y213643D01*
X510008Y213417D01*
X510586Y213206D01*
X511170Y213008D01*
X511758Y212825D01*
X512351Y212656D01*
X512947Y212501D01*
X513548Y212361D01*
X514151Y212235D01*
X514757Y212124D01*
X515366Y212028D01*
X515976Y211946D01*
X516589Y211879D01*
X517203Y211827D01*
X517818Y211790D01*
X518434Y211767D01*
X519050Y211760D01*
X916050Y211760D01*
X916666Y211767D01*
X917282Y211790D01*
X917897Y211827D01*
X918511Y211879D01*
X919124Y211946D01*
X919734Y212028D01*
X920343Y212124D01*
X920949Y212235D01*
X921552Y212361D01*
X922153Y212501D01*
X922749Y212656D01*
X923342Y212825D01*
X923930Y213008D01*
X924514Y213206D01*
X925092Y213417D01*
X925666Y213643D01*
X926234Y213882D01*
X926796Y214135D01*
X927351Y214401D01*
X927900Y214681D01*
X928443Y214974D01*
X928977Y215280D01*
X929505Y215599D01*
X930024Y215930D01*
X930536Y216274D01*
X931039Y216630D01*
X931533Y216998D01*
X932018Y217378D01*
X932493Y217770D01*
X932960Y218173D01*
X933416Y218587D01*
X933862Y219012D01*
X934298Y219448D01*
X934723Y219894D01*
X935137Y220350D01*
X935540Y220817D01*
X935932Y221292D01*
X936312Y221777D01*
X936680Y222271D01*
X937036Y222774D01*
X937380Y223286D01*
X937711Y223805D01*
X938030Y224333D01*
X938336Y224867D01*
X938629Y225410D01*
X938909Y225959D01*
X939175Y226514D01*
X939428Y227076D01*
X939667Y227644D01*
X939893Y228218D01*
X940104Y228796D01*
X940302Y229380D01*
X940485Y229968D01*
X940654Y230561D01*
X940809Y231157D01*
X940949Y231758D01*
X941075Y232361D01*
X941186Y232967D01*
X941282Y233576D01*
X941364Y234186D01*
X941431Y234799D01*
X941483Y235413D01*
X941520Y236028D01*
X941543Y236644D01*
X941550Y237260D01*
X947550Y494260D02*
X947541Y495021D01*
X947513Y495782D01*
X947467Y496542D01*
X947403Y497300D01*
X947320Y498057D01*
X947219Y498811D01*
X947100Y499563D01*
X946963Y500312D01*
X946808Y501057D01*
X946635Y501798D01*
X946444Y502535D01*
X946235Y503267D01*
X946008Y503994D01*
X945764Y504715D01*
X945503Y505430D01*
X945225Y506138D01*
X944929Y506840D01*
X944617Y507534D01*
X944287Y508221D01*
X943942Y508899D01*
X943580Y509568D01*
X943202Y510229D01*
X942808Y510881D01*
X942399Y511522D01*
X941974Y512154D01*
X941534Y512775D01*
X941079Y513386D01*
X940610Y513985D01*
X940126Y514573D01*
X939628Y515148D01*
X939116Y515712D01*
X938591Y516263D01*
X938053Y516801D01*
X937502Y517326D01*
X936938Y517838D01*
X936363Y518336D01*
X935775Y518820D01*
X935176Y519289D01*
X934565Y519744D01*
X933944Y520184D01*
X933312Y520609D01*
X932671Y521018D01*
X932019Y521412D01*
X931358Y521790D01*
X930689Y522152D01*
X930011Y522497D01*
X929324Y522827D01*
X928630Y523139D01*
X927928Y523435D01*
X927220Y523713D01*
X926505Y523974D01*
X925784Y524218D01*
X925057Y524445D01*
X924325Y524654D01*
X923588Y524845D01*
X922847Y525018D01*
X922102Y525173D01*
X921353Y525310D01*
X920601Y525429D01*
X919847Y525530D01*
X919090Y525613D01*
X918332Y525677D01*
X917572Y525723D01*
X916811Y525751D01*
X916050Y525760D01*
X519050Y525760D01*
X518289Y525751D01*
X517528Y525723D01*
X516768Y525677D01*
X516010Y525613D01*
X515253Y525530D01*
X514499Y525429D01*
X513747Y525310D01*
X512998Y525173D01*
X512253Y525018D01*
X511512Y524845D01*
X510775Y524654D01*
X510043Y524445D01*
X509316Y524218D01*
X508595Y523974D01*
X507880Y523713D01*
X507172Y523435D01*
X506470Y523139D01*
X505776Y522827D01*
X505089Y522497D01*
X504411Y522152D01*
X503742Y521790D01*
X503081Y521412D01*
X502429Y521018D01*
X501788Y520609D01*
X501156Y520184D01*
X500535Y519744D01*
X499924Y519289D01*
X499325Y518820D01*
X498737Y518336D01*
X498162Y517838D01*
X497598Y517326D01*
X497047Y516801D01*
X496509Y516263D01*
X495984Y515712D01*
X495472Y515148D01*
X494974Y514573D01*
X494490Y513985D01*
X494021Y513386D01*
X493566Y512775D01*
X493126Y512154D01*
X492701Y511522D01*
X492292Y510881D01*
X491898Y510229D01*
X491520Y509568D01*
X491158Y508899D01*
X490813Y508221D01*
X490483Y507534D01*
X490171Y506840D01*
X489875Y506138D01*
X489597Y505430D01*
X489336Y504715D01*
X489092Y503994D01*
X488865Y503267D01*
X488656Y502535D01*
X488465Y501798D01*
X488292Y501057D01*
X488137Y500312D01*
X488000Y499563D01*
X487881Y498811D01*
X487780Y498057D01*
X487697Y497300D01*
X487633Y496542D01*
X487587Y495782D01*
X487559Y495021D01*
X487550Y494260D01*
X487550Y237260D01*
X487559Y236499D01*
X487587Y235738D01*
X487633Y234978D01*
X487697Y234220D01*
X487780Y233463D01*
X487881Y232709D01*
X488000Y231957D01*
X488137Y231208D01*
X488292Y230463D01*
X488465Y229722D01*
X488656Y228985D01*
X488865Y228253D01*
X489092Y227526D01*
X489336Y226805D01*
X489597Y226090D01*
X489875Y225382D01*
X490171Y224680D01*
X490483Y223986D01*
X490813Y223299D01*
X491158Y222621D01*
X491520Y221952D01*
X491898Y221291D01*
X492292Y220639D01*
X492701Y219998D01*
X493126Y219366D01*
X493566Y218745D01*
X494021Y218134D01*
X494490Y217535D01*
X494974Y216947D01*
X495472Y216372D01*
X495984Y215808D01*
X496509Y215257D01*
X497047Y214719D01*
X497598Y214194D01*
X498162Y213682D01*
X498737Y213184D01*
X499325Y212700D01*
X499924Y212231D01*
X500535Y211776D01*
X501156Y211336D01*
X501788Y210911D01*
X502429Y210502D01*
X503081Y210108D01*
X503742Y209730D01*
X504411Y209368D01*
X505089Y209023D01*
X505776Y208693D01*
X506470Y208381D01*
X507172Y208085D01*
X507880Y207807D01*
X508595Y207546D01*
X509316Y207302D01*
X510043Y207075D01*
X510775Y206866D01*
X511512Y206675D01*
X512253Y206502D01*
X512998Y206347D01*
X513747Y206210D01*
X514499Y206091D01*
X515253Y205990D01*
X516010Y205907D01*
X516768Y205843D01*
X517528Y205797D01*
X518289Y205769D01*
X519050Y205760D01*
X916050Y205760D01*
X916811Y205769D01*
X917572Y205797D01*
X918332Y205843D01*
X919090Y205907D01*
X919847Y205990D01*
X920601Y206091D01*
X921353Y206210D01*
X922102Y206347D01*
X922847Y206502D01*
X923588Y206675D01*
X924325Y206866D01*
X925057Y207075D01*
X925784Y207302D01*
X926505Y207546D01*
X927220Y207807D01*
X927928Y208085D01*
X928630Y208381D01*
X929324Y208693D01*
X930011Y209023D01*
X930689Y209368D01*
X931358Y209730D01*
X932019Y210108D01*
X932671Y210502D01*
X933312Y210911D01*
X933944Y211336D01*
X934565Y211776D01*
X935176Y212231D01*
X935775Y212700D01*
X936363Y213184D01*
X936938Y213682D01*
X937502Y214194D01*
X938053Y214719D01*
X938591Y215257D01*
X939116Y215808D01*
X939628Y216372D01*
X940126Y216947D01*
X940610Y217535D01*
X941079Y218134D01*
X941534Y218745D01*
X941974Y219366D01*
X942399Y219998D01*
X942808Y220639D01*
X943202Y221291D01*
X943580Y221952D01*
X943942Y222621D01*
X944287Y223299D01*
X944617Y223986D01*
X944929Y224680D01*
X945225Y225382D01*
X945503Y226090D01*
X945764Y226805D01*
X946008Y227526D01*
X946235Y228253D01*
X946444Y228985D01*
X946635Y229722D01*
X946808Y230463D01*
X946963Y231208D01*
X947100Y231957D01*
X947219Y232709D01*
X947320Y233463D01*
X947403Y234220D01*
X947467Y234978D01*
X947513Y235738D01*
X947541Y236499D01*
X947550Y237260D01*
X913850Y364260D02*
X913850Y364760D01*
X958950Y364760D02*
X974550Y364760D01*
X923550Y354760D02*
X913850Y364260D01*
X923550Y373760D02*
X929550Y354760D01*
X935550Y354760D02*
X929550Y373760D01*
X935550Y373760D02*
X941550Y354760D01*
X947550Y373760D02*
X958950Y364760D01*
X947550Y354760D02*
X941550Y373760D01*
X923550Y354760D02*
X923550Y237260D01*
X923550Y373760D02*
X923550Y494260D01*
X929550Y494260D02*
X929550Y373760D01*
X929550Y354760D02*
X929550Y237260D01*
X935550Y373760D02*
X935550Y494260D01*
X935550Y354760D02*
X935550Y237260D01*
X941550Y373760D02*
X941550Y494260D01*
X941550Y354760D02*
X941550Y237260D01*
X947550Y373760D02*
X947550Y494260D01*
X947550Y354760D02*
X947550Y237260D01*
D11*
X971550Y365760D03*
X908050Y365760D03*
D12*
X896854Y287020D03*
X906546Y287020D03*
D13*
X853640Y289880D03*
X858640Y289880D03*
X863640Y289880D03*
X868640Y289880D03*
X873640Y289880D03*
X878640Y289880D03*
D14*
X886140Y297380D03*
X886140Y302380D03*
X886140Y307380D03*
X886140Y312380D03*
X886140Y317380D03*
X886140Y322380D03*
D13*
X878640Y329880D03*
X873640Y329880D03*
X868640Y329880D03*
X863640Y329880D03*
X858640Y329880D03*
X853640Y329880D03*
D14*
X846140Y322380D03*
X846140Y317380D03*
X846140Y312380D03*
X846140Y307380D03*
X846140Y302380D03*
X846140Y297380D03*
D15*
X866140Y309880D03*
D16*
X849721Y406400D03*
D17*
X849721Y393700D03*
X862421Y406400D03*
X862421Y393700D03*
X875121Y406400D03*
X875121Y393700D03*
X887821Y406400D03*
X887821Y393700D03*
X900521Y406400D03*
X900521Y393700D03*
D18*
X826770Y448310D03*
X826770Y473710D03*
X852170Y448310D03*
X852170Y473710D03*
X877570Y448310D03*
X877570Y473710D03*
X902970Y448310D03*
X902970Y473710D03*
D19*
X762000Y435610D03*
X762000Y427310D03*
X762000Y419010D03*
X762300Y410710D03*
X762000Y402410D03*
X762000Y394110D03*
X762100Y385810D03*
X762100Y377510D03*
X762100Y369210D03*
X762400Y360910D03*
X762100Y352610D03*
X762100Y344310D03*
X762000Y336010D03*
X762000Y327710D03*
X762000Y319410D03*
X762300Y311110D03*
X761900Y302810D03*
X761900Y294510D03*
X761900Y286210D03*
D18*
X852170Y251460D03*
D20*
X762000Y319410D02*
X762000Y327710D01*
X762000Y336010D01*
X873252Y303276D02*
X885444Y303276D01*
X873252Y303276D02*
X867156Y309372D01*
X885444Y303276D02*
X886140Y302380D01*
X867156Y309372D02*
X866140Y309880D01*
X862584Y393192D02*
X874776Y393192D01*
X862584Y393192D02*
X862421Y393700D01*
X874776Y393192D02*
X875121Y393700D01*
X906780Y352044D02*
X906780Y288036D01*
X906780Y352044D02*
X899160Y359664D01*
X899160Y384048D02*
X899160Y393192D01*
X899160Y384048D02*
X899160Y359664D01*
X906780Y288036D02*
X906546Y287020D01*
X899160Y393192D02*
X900521Y393700D01*
X885444Y384048D02*
X876300Y393192D01*
X885444Y384048D02*
X899160Y384048D01*
X876300Y393192D02*
X875121Y393700D01*
X886968Y303276D02*
X891540Y303276D01*
X900684Y312420D01*
X886968Y303276D02*
X886140Y302380D01*
X762000Y318516D02*
X733044Y318516D01*
X811530Y276606D02*
X896874Y276606D01*
X814070Y276606D02*
X811530Y276606D01*
X896874Y276606D02*
X906780Y286512D01*
X762000Y318516D02*
X762000Y319410D01*
X906546Y287020D02*
X906780Y286512D01*
D21*
X877824Y359664D03*
D20*
X793750Y318770D02*
X762000Y319410D01*
D21*
X793750Y318770D03*
X811530Y276606D03*
D20*
X877824Y359664D02*
X882850Y359664D01*
X900684Y341830D01*
X900684Y312420D01*
X845820Y318516D02*
X836676Y318516D01*
X845820Y318516D02*
X846140Y317380D01*
D21*
X836676Y318516D03*
D20*
X845820Y323088D02*
X845820Y330708D01*
X845820Y323088D02*
X846140Y322380D01*
D21*
X845820Y330708D03*
D20*
X880872Y288036D02*
X896112Y288036D01*
X880872Y288036D02*
X879348Y289560D01*
X896112Y288036D02*
X896854Y287020D01*
X879348Y289560D02*
X878640Y289880D01*
X886968Y307848D02*
X891540Y307848D01*
X894588Y310896D01*
X894588Y339344D01*
X886968Y307848D02*
X886140Y307380D01*
X894588Y339344D02*
X882650Y350520D01*
X881380Y350520D01*
D21*
X881380Y350520D03*
D20*
X862584Y368808D02*
X862584Y330708D01*
X862584Y368808D02*
X841248Y390144D01*
X841248Y397764D01*
X848868Y405384D01*
X862584Y330708D02*
X863640Y329880D01*
X848868Y405384D02*
X849721Y406400D01*
X845820Y301752D02*
X797052Y301752D01*
X790956Y295656D01*
X762000Y295656D01*
X845820Y301752D02*
X846140Y302380D01*
X762000Y295656D02*
X761900Y294510D01*
X844926Y306166D02*
X846140Y307380D01*
X793799Y302810D02*
X761900Y302810D01*
X797155Y306166D02*
X844926Y306166D01*
X797155Y306166D02*
X793799Y302810D01*
X763524Y312420D02*
X845820Y312420D01*
X846140Y312380D01*
X763524Y312420D02*
X762300Y311110D01*
X853440Y330708D02*
X853440Y332232D01*
X842772Y342900D01*
X763524Y342900D01*
X853440Y330708D02*
X853640Y329880D01*
X763524Y342900D02*
X762100Y344310D01*
X858012Y335280D02*
X858012Y330708D01*
X858012Y335280D02*
X841248Y352044D01*
X763524Y352044D01*
X858012Y330708D02*
X858640Y329880D01*
X763524Y352044D02*
X762100Y352610D01*
X762000Y377952D02*
X762000Y385572D01*
X762000Y377952D02*
X762100Y377510D01*
X762000Y385572D02*
X762100Y385810D01*
X891540Y473964D02*
X902208Y473964D01*
X891540Y473964D02*
X874776Y490728D01*
X816864Y490728D01*
X762000Y435864D01*
X902208Y473964D02*
X902970Y473710D01*
X762000Y435864D02*
X762000Y435610D01*
X871728Y473964D02*
X876300Y473964D01*
X871728Y473964D02*
X858012Y487680D01*
X826008Y487680D01*
X795528Y457200D01*
X795528Y432816D01*
X790956Y428244D01*
X762000Y428244D01*
X876300Y473964D02*
X877570Y473710D01*
X762000Y428244D02*
X762000Y427310D01*
X839724Y472440D02*
X851916Y472440D01*
X839724Y472440D02*
X826008Y458724D01*
X822960Y458724D01*
X798576Y434340D01*
X798576Y428244D01*
X789432Y419100D01*
X762000Y419100D01*
X851916Y472440D02*
X852170Y473710D01*
X762000Y419100D02*
X762000Y419010D01*
X827532Y473964D02*
X836676Y473964D01*
X847344Y484632D01*
X856488Y484632D01*
X862584Y478536D01*
X862584Y469392D01*
X851916Y458724D01*
X847344Y458724D01*
X836676Y448056D01*
X836676Y443484D01*
X804672Y411480D01*
X763524Y411480D01*
X826770Y473710D02*
X827532Y473964D01*
X763524Y411480D02*
X762300Y410710D01*
D21*
X798576Y405384D03*
D20*
X795602Y402410D01*
X762000Y402410D01*
X798576Y394716D02*
X852170Y448310D01*
X798576Y394716D02*
X762000Y394716D01*
X762000Y394110D01*
X868680Y448056D02*
X876300Y448056D01*
X868680Y448056D02*
X789686Y369062D01*
X762248Y369062D01*
X762100Y369210D01*
X876300Y448056D02*
X877570Y448310D01*
X891540Y448056D02*
X902208Y448056D01*
X891540Y448056D02*
X859536Y416052D01*
X902208Y448056D02*
X902970Y448310D01*
X763524Y361188D02*
X762400Y360910D01*
X763524Y361188D02*
X789361Y361188D01*
X841395Y413222D01*
X841395Y413387D01*
X844060Y416052D01*
X859536Y416052D01*
X868680Y362712D02*
X868680Y330708D01*
X868640Y329880D01*
D21*
X868680Y362712D03*
D20*
X886968Y297180D02*
X890016Y297180D01*
X903732Y310896D01*
X859536Y384048D02*
X850392Y393192D01*
X886140Y297380D02*
X886968Y297180D01*
X850392Y393192D02*
X849721Y393700D01*
X859536Y384048D02*
X862776Y384048D01*
X903732Y343092D01*
X903732Y310896D01*
X845820Y297180D02*
X815340Y297180D01*
X804672Y286512D01*
X801370Y286512D02*
X762000Y286512D01*
X801370Y286512D02*
X804672Y286512D01*
X845820Y297180D02*
X846140Y297380D01*
X801370Y286512D02*
X801370Y276860D01*
X826770Y251460D01*
X852170Y251460D01*
M02*
