G04 EAGLE Gerber RS-274X export*
G75*
%MOMM*%
%FSLAX34Y34*%
%LPD*%
%INSilkscreen Top*%
%IPPOS*%
%AMOC8*
5,1,8,0,0,1.08239X$1,22.5*%
G01*
G04 Define Apertures*
%ADD10C,0.101600*%
%ADD11C,0.127000*%
%ADD12C,0.250000*%
%ADD13C,0.200000*%
%ADD14C,0.152400*%
G36*
X903544Y294498D02*
X903752Y294517D01*
X904149Y294592D01*
X904519Y294716D01*
X904863Y294891D01*
X905175Y295113D01*
X905450Y295381D01*
X905688Y295694D01*
X905889Y296053D01*
X905234Y296380D01*
X905068Y296092D01*
X904883Y295842D01*
X904679Y295631D01*
X904455Y295458D01*
X904212Y295324D01*
X903949Y295228D01*
X903668Y295170D01*
X903367Y295151D01*
X903131Y295161D01*
X902907Y295192D01*
X902696Y295244D01*
X902498Y295316D01*
X902312Y295409D01*
X902138Y295523D01*
X901977Y295657D01*
X901829Y295812D01*
X901696Y295984D01*
X901580Y296169D01*
X901483Y296367D01*
X901403Y296579D01*
X901340Y296804D01*
X901296Y297043D01*
X901269Y297294D01*
X901260Y297559D01*
X901269Y297827D01*
X901295Y298080D01*
X901337Y298318D01*
X901397Y298542D01*
X901474Y298751D01*
X901567Y298945D01*
X901678Y299125D01*
X901806Y299290D01*
X901949Y299438D01*
X902106Y299567D01*
X902276Y299675D01*
X902461Y299764D01*
X902658Y299833D01*
X902870Y299882D01*
X903095Y299912D01*
X903333Y299922D01*
X903635Y299905D01*
X903916Y299854D01*
X904176Y299768D01*
X904414Y299649D01*
X904626Y299498D01*
X904807Y299316D01*
X904956Y299103D01*
X905075Y298860D01*
X905834Y299112D01*
X905664Y299453D01*
X905452Y299749D01*
X905199Y300000D01*
X904903Y300207D01*
X904567Y300369D01*
X904191Y300484D01*
X903778Y300553D01*
X903325Y300577D01*
X902996Y300564D01*
X902686Y300526D01*
X902394Y300464D01*
X902121Y300376D01*
X901865Y300263D01*
X901629Y300126D01*
X901410Y299963D01*
X901210Y299775D01*
X901031Y299565D01*
X900876Y299336D01*
X900745Y299088D01*
X900637Y298820D01*
X900554Y298534D01*
X900494Y298228D01*
X900458Y297903D01*
X900446Y297559D01*
X900468Y297103D01*
X900532Y296679D01*
X900639Y296286D01*
X900788Y295925D01*
X900979Y295600D01*
X901208Y295315D01*
X901476Y295069D01*
X901783Y294863D01*
X902124Y294701D01*
X902496Y294585D01*
X902897Y294515D01*
X903329Y294492D01*
X903544Y294498D01*
G37*
G36*
X910589Y295218D02*
X909149Y295218D01*
X909149Y300488D01*
X908453Y300488D01*
X907055Y299527D01*
X907055Y298814D01*
X908390Y299767D01*
X908390Y295218D01*
X906883Y295218D01*
X906883Y294576D01*
X910589Y294576D01*
X910589Y295218D01*
G37*
G36*
X862822Y277544D02*
X863030Y277563D01*
X863426Y277638D01*
X863797Y277762D01*
X864140Y277937D01*
X864452Y278159D01*
X864727Y278427D01*
X864965Y278740D01*
X865166Y279099D01*
X864512Y279426D01*
X864346Y279138D01*
X864161Y278888D01*
X863956Y278677D01*
X863732Y278504D01*
X863489Y278370D01*
X863227Y278274D01*
X862945Y278216D01*
X862644Y278197D01*
X862408Y278207D01*
X862185Y278238D01*
X861974Y278290D01*
X861775Y278362D01*
X861589Y278455D01*
X861416Y278569D01*
X861255Y278703D01*
X861107Y278858D01*
X860973Y279030D01*
X860858Y279215D01*
X860760Y279413D01*
X860680Y279625D01*
X860618Y279850D01*
X860573Y280089D01*
X860547Y280340D01*
X860538Y280605D01*
X860546Y280873D01*
X860572Y281126D01*
X860615Y281364D01*
X860674Y281588D01*
X860751Y281797D01*
X860845Y281991D01*
X860956Y282171D01*
X861083Y282336D01*
X861227Y282484D01*
X861383Y282613D01*
X861554Y282721D01*
X861738Y282810D01*
X861936Y282879D01*
X862147Y282928D01*
X862372Y282958D01*
X862611Y282968D01*
X862913Y282951D01*
X863194Y282900D01*
X863453Y282814D01*
X863691Y282695D01*
X863903Y282544D01*
X864084Y282362D01*
X864234Y282149D01*
X864352Y281906D01*
X865112Y282158D01*
X864942Y282499D01*
X864730Y282795D01*
X864476Y283046D01*
X864180Y283253D01*
X863844Y283415D01*
X863469Y283530D01*
X863055Y283599D01*
X862602Y283623D01*
X862274Y283610D01*
X861964Y283572D01*
X861672Y283510D01*
X861398Y283422D01*
X861143Y283309D01*
X860906Y283172D01*
X860688Y283009D01*
X860488Y282821D01*
X860309Y282611D01*
X860153Y282382D01*
X860022Y282134D01*
X859915Y281866D01*
X859831Y281580D01*
X859772Y281274D01*
X859736Y280949D01*
X859724Y280605D01*
X859745Y280149D01*
X859809Y279725D01*
X859916Y279332D01*
X860066Y278971D01*
X860256Y278646D01*
X860486Y278361D01*
X860754Y278115D01*
X861060Y277909D01*
X861402Y277747D01*
X861773Y277631D01*
X862175Y277561D01*
X862607Y277538D01*
X862822Y277544D01*
G37*
G36*
X869866Y278264D02*
X868427Y278264D01*
X868427Y283534D01*
X867730Y283534D01*
X866333Y282573D01*
X866333Y281860D01*
X867667Y282813D01*
X867667Y278264D01*
X866161Y278264D01*
X866161Y277622D01*
X869866Y277622D01*
X869866Y278264D01*
G37*
G36*
X858507Y283534D02*
X857706Y283534D01*
X857706Y277622D01*
X858507Y277622D01*
X858507Y283534D01*
G37*
G36*
X871561Y423072D02*
X868477Y423072D01*
X868549Y423220D01*
X868642Y423372D01*
X868888Y423683D01*
X869222Y424019D01*
X869656Y424394D01*
X870391Y425014D01*
X870843Y425447D01*
X871115Y425787D01*
X871223Y425957D01*
X871311Y426127D01*
X871380Y426297D01*
X871429Y426468D01*
X871459Y426639D01*
X871468Y426811D01*
X871461Y426999D01*
X871438Y427177D01*
X871401Y427343D01*
X871348Y427498D01*
X871281Y427643D01*
X871198Y427776D01*
X871101Y427898D01*
X870988Y428009D01*
X870861Y428108D01*
X870722Y428193D01*
X870569Y428266D01*
X870404Y428325D01*
X870226Y428371D01*
X870035Y428404D01*
X869831Y428424D01*
X869614Y428431D01*
X869415Y428424D01*
X869225Y428404D01*
X869045Y428372D01*
X868874Y428326D01*
X868712Y428267D01*
X868559Y428194D01*
X868281Y428011D01*
X868049Y427783D01*
X867954Y427655D01*
X867872Y427519D01*
X867803Y427373D01*
X867748Y427219D01*
X867707Y427055D01*
X867679Y426882D01*
X868451Y426811D01*
X868495Y427035D01*
X868570Y427232D01*
X868678Y427403D01*
X868819Y427547D01*
X868985Y427662D01*
X869174Y427744D01*
X869383Y427793D01*
X869614Y427809D01*
X869854Y427793D01*
X870066Y427742D01*
X870250Y427658D01*
X870407Y427541D01*
X870532Y427393D01*
X870621Y427218D01*
X870674Y427015D01*
X870692Y426786D01*
X870682Y426610D01*
X870651Y426444D01*
X870599Y426287D01*
X870526Y426139D01*
X870335Y425860D01*
X870092Y425594D01*
X869807Y425334D01*
X869490Y425074D01*
X868816Y424509D01*
X868484Y424187D01*
X868168Y423829D01*
X868020Y423634D01*
X867883Y423425D01*
X867759Y423201D01*
X867646Y422963D01*
X867646Y422430D01*
X871561Y422430D01*
X871561Y423072D01*
G37*
G36*
X865016Y422354D02*
X865202Y422377D01*
X865378Y422415D01*
X865542Y422469D01*
X865697Y422539D01*
X865840Y422623D01*
X865972Y422724D01*
X866094Y422839D01*
X866203Y422968D01*
X866298Y423109D01*
X866378Y423261D01*
X866444Y423424D01*
X866495Y423599D01*
X866531Y423785D01*
X866553Y423983D01*
X866560Y424192D01*
X866560Y428342D01*
X864626Y428342D01*
X864626Y427688D01*
X865763Y427688D01*
X865763Y424176D01*
X865747Y423904D01*
X865700Y423666D01*
X865621Y423464D01*
X865511Y423297D01*
X865374Y423165D01*
X865213Y423071D01*
X865030Y423015D01*
X864823Y422996D01*
X864632Y423014D01*
X864458Y423065D01*
X864300Y423150D01*
X864160Y423269D01*
X864039Y423419D01*
X863943Y423595D01*
X863870Y423799D01*
X863820Y424029D01*
X863035Y423899D01*
X863125Y423535D01*
X863252Y423219D01*
X863418Y422953D01*
X863622Y422734D01*
X863864Y422564D01*
X864144Y422443D01*
X864462Y422370D01*
X864636Y422352D01*
X864819Y422346D01*
X865016Y422354D01*
G37*
G36*
X855449Y495064D02*
X857186Y495064D01*
X857415Y495071D01*
X857632Y495095D01*
X857836Y495133D01*
X858028Y495187D01*
X858208Y495257D01*
X858375Y495342D01*
X858531Y495443D01*
X858674Y495559D01*
X858802Y495688D01*
X858913Y495828D01*
X859007Y495979D01*
X859084Y496140D01*
X859144Y496312D01*
X859187Y496495D01*
X859213Y496689D01*
X859221Y496893D01*
X859213Y497099D01*
X859187Y497293D01*
X859145Y497475D01*
X859085Y497645D01*
X859008Y497804D01*
X858914Y497950D01*
X858804Y498084D01*
X858676Y498207D01*
X858532Y498316D01*
X858375Y498410D01*
X858204Y498490D01*
X858018Y498556D01*
X857819Y498607D01*
X857605Y498643D01*
X857377Y498665D01*
X857136Y498672D01*
X854647Y498672D01*
X854647Y492760D01*
X855449Y492760D01*
X855449Y495064D01*
G37*
G36*
X864021Y493402D02*
X862582Y493402D01*
X862582Y498672D01*
X861885Y498672D01*
X860488Y497711D01*
X860488Y496998D01*
X861822Y497951D01*
X861822Y493402D01*
X860316Y493402D01*
X860316Y492760D01*
X864021Y492760D01*
X864021Y493402D01*
G37*
G36*
X851745Y492684D02*
X851931Y492707D01*
X852107Y492745D01*
X852271Y492799D01*
X852426Y492869D01*
X852569Y492953D01*
X852701Y493054D01*
X852823Y493169D01*
X852932Y493298D01*
X853027Y493439D01*
X853107Y493591D01*
X853173Y493754D01*
X853224Y493929D01*
X853260Y494115D01*
X853282Y494313D01*
X853289Y494522D01*
X853289Y498672D01*
X851355Y498672D01*
X851355Y498018D01*
X852492Y498018D01*
X852492Y494506D01*
X852476Y494234D01*
X852429Y493996D01*
X852350Y493794D01*
X852240Y493627D01*
X852103Y493495D01*
X851942Y493401D01*
X851759Y493345D01*
X851552Y493326D01*
X851361Y493344D01*
X851187Y493395D01*
X851029Y493480D01*
X850889Y493599D01*
X850768Y493749D01*
X850672Y493925D01*
X850599Y494129D01*
X850549Y494359D01*
X849764Y494229D01*
X849854Y493865D01*
X849981Y493549D01*
X850147Y493283D01*
X850351Y493064D01*
X850593Y492894D01*
X850873Y492773D01*
X851191Y492700D01*
X851365Y492682D01*
X851548Y492676D01*
X851745Y492684D01*
G37*
%LPC*%
G36*
X855449Y495697D02*
X855449Y498030D01*
X857039Y498030D01*
X857362Y498012D01*
X857641Y497959D01*
X857878Y497869D01*
X858072Y497744D01*
X858222Y497583D01*
X858330Y497386D01*
X858394Y497153D01*
X858416Y496885D01*
X858395Y496607D01*
X858332Y496365D01*
X858227Y496161D01*
X858080Y495994D01*
X857891Y495864D01*
X857660Y495772D01*
X857388Y495716D01*
X857073Y495697D01*
X855449Y495697D01*
G37*
%LPD*%
G36*
X754911Y264178D02*
X755138Y264195D01*
X755351Y264224D01*
X755551Y264265D01*
X755737Y264317D01*
X755910Y264382D01*
X756070Y264457D01*
X756217Y264545D01*
X756351Y264644D01*
X756470Y264753D01*
X756573Y264871D01*
X756660Y264997D01*
X756732Y265132D01*
X756787Y265275D01*
X756827Y265427D01*
X756851Y265587D01*
X756858Y265756D01*
X756852Y265920D01*
X756834Y266074D01*
X756804Y266216D01*
X756762Y266347D01*
X756643Y266582D01*
X756481Y266784D01*
X756263Y266959D01*
X755979Y267115D01*
X755794Y267191D01*
X755554Y267269D01*
X754911Y267438D01*
X754911Y269306D01*
X755142Y269272D01*
X755344Y269216D01*
X755516Y269138D01*
X755658Y269039D01*
X755776Y268918D01*
X755871Y268775D01*
X755946Y268611D01*
X755998Y268424D01*
X756728Y268563D01*
X756625Y268876D01*
X756489Y269146D01*
X756322Y269371D01*
X756124Y269551D01*
X755888Y269692D01*
X755607Y269798D01*
X755281Y269869D01*
X754911Y269906D01*
X754911Y270455D01*
X754391Y270455D01*
X754391Y269906D01*
X753982Y269866D01*
X753622Y269786D01*
X753311Y269664D01*
X753050Y269501D01*
X752940Y269405D01*
X752844Y269299D01*
X752763Y269186D01*
X752696Y269063D01*
X752645Y268931D01*
X752608Y268791D01*
X752586Y268641D01*
X752578Y268483D01*
X752598Y268199D01*
X752656Y267959D01*
X752758Y267747D01*
X752908Y267550D01*
X753109Y267370D01*
X753365Y267212D01*
X753535Y267136D01*
X753654Y267094D01*
X753763Y267055D01*
X754391Y266880D01*
X754391Y264799D01*
X754229Y264817D01*
X754110Y264831D01*
X753861Y264890D01*
X753645Y264976D01*
X753462Y265088D01*
X753309Y265230D01*
X753185Y265402D01*
X753090Y265605D01*
X753023Y265840D01*
X752310Y265684D01*
X752407Y265348D01*
X752550Y265054D01*
X752740Y264802D01*
X752977Y264592D01*
X753261Y264425D01*
X753591Y264300D01*
X753968Y264218D01*
X754391Y264178D01*
X754391Y263498D01*
X754911Y263498D01*
X754911Y264178D01*
G37*
G36*
X749431Y264027D02*
X749772Y264079D01*
X750087Y264165D01*
X750377Y264285D01*
X750640Y264438D01*
X750870Y264621D01*
X751070Y264835D01*
X751238Y265080D01*
X751371Y265353D01*
X751466Y265650D01*
X751523Y265972D01*
X751542Y266318D01*
X751542Y270006D01*
X750745Y270006D01*
X750745Y266364D01*
X750738Y266162D01*
X750717Y265972D01*
X750682Y265794D01*
X750634Y265629D01*
X750572Y265477D01*
X750496Y265337D01*
X750406Y265210D01*
X750302Y265095D01*
X750186Y264993D01*
X750058Y264905D01*
X749920Y264830D01*
X749771Y264769D01*
X749610Y264722D01*
X749438Y264688D01*
X749256Y264667D01*
X749062Y264660D01*
X748874Y264667D01*
X748697Y264687D01*
X748531Y264719D01*
X748377Y264765D01*
X748234Y264824D01*
X748103Y264897D01*
X747983Y264982D01*
X747874Y265080D01*
X747778Y265191D01*
X747695Y265314D01*
X747624Y265450D01*
X747566Y265597D01*
X747521Y265757D01*
X747489Y265929D01*
X747470Y266113D01*
X747463Y266310D01*
X747463Y270006D01*
X746662Y270006D01*
X746662Y266242D01*
X746680Y265906D01*
X746736Y265594D01*
X746829Y265306D01*
X746960Y265042D01*
X747124Y264806D01*
X747318Y264599D01*
X747543Y264422D01*
X747799Y264274D01*
X748081Y264159D01*
X748386Y264076D01*
X748715Y264027D01*
X749066Y264010D01*
X749431Y264027D01*
G37*
G36*
X761346Y264736D02*
X758262Y264736D01*
X758335Y264884D01*
X758428Y265036D01*
X758673Y265347D01*
X759008Y265683D01*
X759441Y266058D01*
X760176Y266678D01*
X760628Y267111D01*
X760901Y267451D01*
X761008Y267621D01*
X761096Y267791D01*
X761165Y267961D01*
X761214Y268132D01*
X761244Y268303D01*
X761254Y268475D01*
X761246Y268663D01*
X761224Y268841D01*
X761186Y269007D01*
X761134Y269162D01*
X761066Y269307D01*
X760983Y269440D01*
X760886Y269562D01*
X760773Y269673D01*
X760647Y269772D01*
X760507Y269857D01*
X760355Y269930D01*
X760189Y269989D01*
X760011Y270035D01*
X759820Y270068D01*
X759616Y270088D01*
X759399Y270095D01*
X759200Y270088D01*
X759010Y270068D01*
X758830Y270036D01*
X758659Y269990D01*
X758497Y269931D01*
X758344Y269858D01*
X758067Y269675D01*
X757835Y269447D01*
X757739Y269319D01*
X757657Y269183D01*
X757589Y269037D01*
X757534Y268883D01*
X757492Y268719D01*
X757465Y268546D01*
X758237Y268475D01*
X758280Y268699D01*
X758356Y268896D01*
X758464Y269067D01*
X758604Y269211D01*
X758771Y269326D01*
X758959Y269408D01*
X759168Y269457D01*
X759399Y269473D01*
X759639Y269457D01*
X759851Y269406D01*
X760035Y269322D01*
X760192Y269205D01*
X760317Y269057D01*
X760406Y268882D01*
X760460Y268679D01*
X760477Y268450D01*
X760467Y268274D01*
X760436Y268108D01*
X760384Y267951D01*
X760312Y267803D01*
X760120Y267524D01*
X759877Y267258D01*
X759593Y266998D01*
X759275Y266738D01*
X758602Y266173D01*
X758270Y265851D01*
X757953Y265493D01*
X757805Y265298D01*
X757669Y265089D01*
X757544Y264865D01*
X757431Y264627D01*
X757431Y264094D01*
X761346Y264094D01*
X761346Y264736D01*
G37*
%LPC*%
G36*
X754911Y266759D02*
X755410Y266613D01*
X755713Y266488D01*
X755894Y266357D01*
X756028Y266196D01*
X756075Y266102D01*
X756109Y265996D01*
X756130Y265878D01*
X756137Y265747D01*
X756117Y265545D01*
X756058Y265365D01*
X755959Y265209D01*
X755820Y265076D01*
X755644Y264967D01*
X755434Y264884D01*
X755190Y264826D01*
X755101Y264816D01*
X754911Y264795D01*
X754911Y266759D01*
G37*
G36*
X753990Y267665D02*
X753718Y267782D01*
X753536Y267914D01*
X753407Y268070D01*
X753405Y268072D01*
X753359Y268163D01*
X753326Y268263D01*
X753307Y268373D01*
X753300Y268492D01*
X753317Y268671D01*
X753368Y268829D01*
X753454Y268965D01*
X753573Y269079D01*
X753726Y269171D01*
X753914Y269241D01*
X754135Y269288D01*
X754391Y269314D01*
X754391Y267547D01*
X753990Y267665D01*
G37*
%LPD*%
G36*
X877547Y256812D02*
X879284Y256812D01*
X879513Y256819D01*
X879730Y256843D01*
X879934Y256881D01*
X880126Y256935D01*
X880306Y257005D01*
X880473Y257090D01*
X880629Y257191D01*
X880772Y257307D01*
X880900Y257436D01*
X881011Y257576D01*
X881105Y257727D01*
X881182Y257888D01*
X881242Y258060D01*
X881285Y258243D01*
X881311Y258437D01*
X881319Y258641D01*
X881311Y258847D01*
X881285Y259041D01*
X881243Y259223D01*
X881183Y259393D01*
X881106Y259552D01*
X881012Y259698D01*
X880902Y259832D01*
X880774Y259955D01*
X880630Y260064D01*
X880473Y260158D01*
X880302Y260238D01*
X880116Y260304D01*
X879917Y260355D01*
X879703Y260391D01*
X879475Y260413D01*
X879234Y260420D01*
X876745Y260420D01*
X876745Y254508D01*
X877547Y254508D01*
X877547Y256812D01*
G37*
G36*
X886106Y255150D02*
X883022Y255150D01*
X883095Y255298D01*
X883188Y255450D01*
X883434Y255761D01*
X883768Y256097D01*
X884201Y256472D01*
X884937Y257092D01*
X885389Y257525D01*
X885661Y257865D01*
X885769Y258035D01*
X885857Y258205D01*
X885926Y258375D01*
X885975Y258546D01*
X886004Y258717D01*
X886014Y258889D01*
X886007Y259077D01*
X885984Y259255D01*
X885947Y259421D01*
X885894Y259576D01*
X885826Y259721D01*
X885744Y259854D01*
X885646Y259976D01*
X885534Y260087D01*
X885407Y260186D01*
X885268Y260271D01*
X885115Y260344D01*
X884950Y260403D01*
X884772Y260449D01*
X884581Y260482D01*
X884376Y260502D01*
X884159Y260509D01*
X883961Y260502D01*
X883771Y260482D01*
X883591Y260450D01*
X883419Y260404D01*
X883257Y260345D01*
X883105Y260272D01*
X882827Y260089D01*
X882595Y259861D01*
X882500Y259733D01*
X882418Y259597D01*
X882349Y259451D01*
X882294Y259297D01*
X882253Y259133D01*
X882225Y258960D01*
X882997Y258889D01*
X883041Y259113D01*
X883116Y259310D01*
X883224Y259481D01*
X883364Y259625D01*
X883531Y259740D01*
X883719Y259822D01*
X883929Y259871D01*
X884159Y259887D01*
X884399Y259871D01*
X884612Y259820D01*
X884796Y259736D01*
X884953Y259619D01*
X885077Y259471D01*
X885167Y259296D01*
X885220Y259093D01*
X885238Y258864D01*
X885228Y258688D01*
X885196Y258522D01*
X885145Y258365D01*
X885072Y258217D01*
X884881Y257938D01*
X884638Y257672D01*
X884353Y257412D01*
X884036Y257152D01*
X883362Y256587D01*
X883030Y256265D01*
X882714Y255907D01*
X882566Y255712D01*
X882429Y255503D01*
X882304Y255279D01*
X882191Y255041D01*
X882191Y254508D01*
X886106Y254508D01*
X886106Y255150D01*
G37*
G36*
X873843Y254432D02*
X874029Y254455D01*
X874205Y254493D01*
X874369Y254547D01*
X874524Y254617D01*
X874667Y254701D01*
X874799Y254802D01*
X874921Y254917D01*
X875030Y255046D01*
X875125Y255187D01*
X875205Y255339D01*
X875271Y255502D01*
X875322Y255677D01*
X875358Y255863D01*
X875380Y256061D01*
X875387Y256270D01*
X875387Y260420D01*
X873453Y260420D01*
X873453Y259766D01*
X874590Y259766D01*
X874590Y256254D01*
X874574Y255982D01*
X874527Y255744D01*
X874448Y255542D01*
X874338Y255375D01*
X874201Y255243D01*
X874040Y255149D01*
X873857Y255093D01*
X873650Y255074D01*
X873459Y255092D01*
X873285Y255143D01*
X873127Y255228D01*
X872987Y255347D01*
X872866Y255497D01*
X872770Y255673D01*
X872697Y255877D01*
X872647Y256107D01*
X871862Y255977D01*
X871952Y255613D01*
X872079Y255297D01*
X872245Y255031D01*
X872449Y254812D01*
X872691Y254642D01*
X872971Y254521D01*
X873289Y254448D01*
X873463Y254430D01*
X873646Y254424D01*
X873843Y254432D01*
G37*
%LPC*%
G36*
X877547Y257445D02*
X877547Y259778D01*
X879137Y259778D01*
X879460Y259760D01*
X879739Y259707D01*
X879976Y259617D01*
X880170Y259492D01*
X880320Y259331D01*
X880428Y259134D01*
X880492Y258901D01*
X880514Y258633D01*
X880493Y258355D01*
X880430Y258113D01*
X880325Y257909D01*
X880178Y257742D01*
X879989Y257612D01*
X879758Y257520D01*
X879486Y257464D01*
X879171Y257445D01*
X877547Y257445D01*
G37*
%LPD*%
D10*
X652018Y182118D02*
X655913Y193802D01*
X659807Y182118D01*
X658834Y185039D02*
X652992Y185039D01*
X664478Y182118D02*
X664478Y193802D01*
X670969Y182118D01*
X670969Y193802D01*
X678773Y193802D02*
X678773Y182118D01*
X675527Y193802D02*
X682018Y193802D01*
X685701Y180820D02*
X690894Y180820D01*
X695339Y191206D02*
X698585Y193802D01*
X698585Y182118D01*
X701830Y182118D02*
X695339Y182118D01*
D11*
X896200Y293306D02*
X907200Y293306D01*
X907200Y280734D02*
X896200Y280734D01*
D12*
X844890Y285880D02*
X844892Y285950D01*
X844898Y286020D01*
X844908Y286089D01*
X844921Y286158D01*
X844939Y286226D01*
X844960Y286293D01*
X844985Y286358D01*
X845014Y286422D01*
X845046Y286485D01*
X845082Y286545D01*
X845121Y286603D01*
X845163Y286659D01*
X845208Y286713D01*
X845256Y286764D01*
X845307Y286812D01*
X845361Y286857D01*
X845417Y286899D01*
X845475Y286938D01*
X845535Y286974D01*
X845598Y287006D01*
X845662Y287035D01*
X845727Y287060D01*
X845794Y287081D01*
X845862Y287099D01*
X845931Y287112D01*
X846000Y287122D01*
X846070Y287128D01*
X846140Y287130D01*
X846210Y287128D01*
X846280Y287122D01*
X846349Y287112D01*
X846418Y287099D01*
X846486Y287081D01*
X846553Y287060D01*
X846618Y287035D01*
X846682Y287006D01*
X846745Y286974D01*
X846805Y286938D01*
X846863Y286899D01*
X846919Y286857D01*
X846973Y286812D01*
X847024Y286764D01*
X847072Y286713D01*
X847117Y286659D01*
X847159Y286603D01*
X847198Y286545D01*
X847234Y286485D01*
X847266Y286422D01*
X847295Y286358D01*
X847320Y286293D01*
X847341Y286226D01*
X847359Y286158D01*
X847372Y286089D01*
X847382Y286020D01*
X847388Y285950D01*
X847390Y285880D01*
X847388Y285810D01*
X847382Y285740D01*
X847372Y285671D01*
X847359Y285602D01*
X847341Y285534D01*
X847320Y285467D01*
X847295Y285402D01*
X847266Y285338D01*
X847234Y285275D01*
X847198Y285215D01*
X847159Y285157D01*
X847117Y285101D01*
X847072Y285047D01*
X847024Y284996D01*
X846973Y284948D01*
X846919Y284903D01*
X846863Y284861D01*
X846805Y284822D01*
X846745Y284786D01*
X846682Y284754D01*
X846618Y284725D01*
X846553Y284700D01*
X846486Y284679D01*
X846418Y284661D01*
X846349Y284648D01*
X846280Y284638D01*
X846210Y284632D01*
X846140Y284630D01*
X846070Y284632D01*
X846000Y284638D01*
X845931Y284648D01*
X845862Y284661D01*
X845794Y284679D01*
X845727Y284700D01*
X845662Y284725D01*
X845598Y284754D01*
X845535Y284786D01*
X845475Y284822D01*
X845417Y284861D01*
X845361Y284903D01*
X845307Y284948D01*
X845256Y284996D01*
X845208Y285047D01*
X845163Y285101D01*
X845121Y285157D01*
X845082Y285215D01*
X845046Y285275D01*
X845014Y285338D01*
X844985Y285402D01*
X844960Y285467D01*
X844939Y285534D01*
X844921Y285602D01*
X844908Y285671D01*
X844898Y285740D01*
X844892Y285810D01*
X844890Y285880D01*
D11*
X843371Y417050D02*
X906871Y417050D01*
X906871Y383050D02*
X843371Y383050D01*
X843371Y413050D02*
X843371Y417050D01*
X906871Y417050D02*
X906871Y411050D01*
X906871Y389050D02*
X906871Y383050D01*
X843371Y383050D02*
X843371Y390050D01*
D13*
X836771Y406050D02*
X836773Y406113D01*
X836779Y406175D01*
X836789Y406237D01*
X836802Y406299D01*
X836820Y406359D01*
X836841Y406418D01*
X836866Y406476D01*
X836895Y406532D01*
X836927Y406586D01*
X836962Y406638D01*
X837000Y406687D01*
X837042Y406735D01*
X837086Y406779D01*
X837134Y406821D01*
X837183Y406859D01*
X837235Y406894D01*
X837289Y406926D01*
X837345Y406955D01*
X837403Y406980D01*
X837462Y407001D01*
X837522Y407019D01*
X837584Y407032D01*
X837646Y407042D01*
X837708Y407048D01*
X837771Y407050D01*
X837834Y407048D01*
X837896Y407042D01*
X837958Y407032D01*
X838020Y407019D01*
X838080Y407001D01*
X838139Y406980D01*
X838197Y406955D01*
X838253Y406926D01*
X838307Y406894D01*
X838359Y406859D01*
X838408Y406821D01*
X838456Y406779D01*
X838500Y406735D01*
X838542Y406687D01*
X838580Y406638D01*
X838615Y406586D01*
X838647Y406532D01*
X838676Y406476D01*
X838701Y406418D01*
X838722Y406359D01*
X838740Y406299D01*
X838753Y406237D01*
X838763Y406175D01*
X838769Y406113D01*
X838771Y406050D01*
X838769Y405987D01*
X838763Y405925D01*
X838753Y405863D01*
X838740Y405801D01*
X838722Y405741D01*
X838701Y405682D01*
X838676Y405624D01*
X838647Y405568D01*
X838615Y405514D01*
X838580Y405462D01*
X838542Y405413D01*
X838500Y405365D01*
X838456Y405321D01*
X838408Y405279D01*
X838359Y405241D01*
X838307Y405206D01*
X838253Y405174D01*
X838197Y405145D01*
X838139Y405120D01*
X838080Y405099D01*
X838020Y405081D01*
X837958Y405068D01*
X837896Y405058D01*
X837834Y405052D01*
X837771Y405050D01*
X837708Y405052D01*
X837646Y405058D01*
X837584Y405068D01*
X837522Y405081D01*
X837462Y405099D01*
X837403Y405120D01*
X837345Y405145D01*
X837289Y405174D01*
X837235Y405206D01*
X837183Y405241D01*
X837134Y405279D01*
X837086Y405321D01*
X837042Y405365D01*
X837000Y405413D01*
X836962Y405462D01*
X836927Y405514D01*
X836895Y405568D01*
X836866Y405624D01*
X836841Y405682D01*
X836820Y405741D01*
X836802Y405801D01*
X836789Y405863D01*
X836779Y405925D01*
X836773Y405987D01*
X836771Y406050D01*
D14*
X820420Y435610D02*
X814070Y441960D01*
X833120Y435610D02*
X839470Y441960D01*
X845820Y435610D01*
X858520Y435610D02*
X864870Y441960D01*
X871220Y435610D01*
X883920Y435610D02*
X890270Y441960D01*
X814070Y441960D02*
X814070Y480060D01*
X820420Y486410D01*
X833120Y486410D01*
X839470Y480060D01*
X845820Y486410D01*
X858520Y486410D01*
X864870Y480060D01*
X871220Y486410D01*
X883920Y486410D01*
X890270Y480060D01*
X839470Y480060D02*
X839470Y441960D01*
X864870Y441960D02*
X864870Y480060D01*
X890270Y480060D02*
X890270Y441960D01*
X883920Y435610D02*
X871220Y435610D01*
X858520Y435610D02*
X845820Y435610D01*
X833120Y435610D02*
X820420Y435610D01*
X890270Y441960D02*
X896620Y435610D01*
X909320Y435610D02*
X915670Y441960D01*
X890270Y480060D02*
X896620Y486410D01*
X909320Y486410D01*
X915670Y480060D01*
X915670Y441960D01*
X909320Y435610D02*
X896620Y435610D01*
X858520Y264160D02*
X845820Y264160D01*
X858520Y264160D02*
X864870Y257810D01*
X864870Y245110D01*
X858520Y238760D01*
X839470Y245110D02*
X839470Y257810D01*
X845820Y264160D01*
X839470Y245110D02*
X845820Y238760D01*
X858520Y238760D01*
M02*
