G04 EAGLE Gerber RS-274X export*
G75*
%MOMM*%
%FSLAX34Y34*%
%LPD*%
%INSoldermask Top*%
%IPPOS*%
%AMOC8*
5,1,8,0,0,1.08239X$1,22.5*%
G01*
G04 Define Apertures*
%ADD10R,1.311200X1.311200*%
%ADD11R,0.763200X0.832300*%
%ADD12R,0.503200X1.003200*%
%ADD13R,1.003200X0.503200*%
%ADD14R,2.953200X2.953200*%
%ADD15R,1.411200X1.411200*%
%ADD16C,1.411200*%
%ADD17P,1.8695X8X22.5*%
%ADD18R,6.203200X0.613200*%
%ADD19C,0.959600*%
D10*
X971550Y365760D03*
X908050Y365760D03*
D11*
X896854Y287020D03*
X906546Y287020D03*
D12*
X853640Y289880D03*
X858640Y289880D03*
X863640Y289880D03*
X868640Y289880D03*
X873640Y289880D03*
X878640Y289880D03*
D13*
X886140Y297380D03*
X886140Y302380D03*
X886140Y307380D03*
X886140Y312380D03*
X886140Y317380D03*
X886140Y322380D03*
D12*
X878640Y329880D03*
X873640Y329880D03*
X868640Y329880D03*
X863640Y329880D03*
X858640Y329880D03*
X853640Y329880D03*
D13*
X846140Y322380D03*
X846140Y317380D03*
X846140Y312380D03*
X846140Y307380D03*
X846140Y302380D03*
X846140Y297380D03*
D14*
X866140Y309880D03*
D15*
X849721Y406400D03*
D16*
X849721Y393700D03*
X862421Y406400D03*
X862421Y393700D03*
X875121Y406400D03*
X875121Y393700D03*
X887821Y406400D03*
X887821Y393700D03*
X900521Y406400D03*
X900521Y393700D03*
D17*
X826770Y448310D03*
X826770Y473710D03*
X852170Y448310D03*
X852170Y473710D03*
X877570Y448310D03*
X877570Y473710D03*
X902970Y448310D03*
X902970Y473710D03*
D18*
X762000Y435610D03*
X762000Y427310D03*
X762000Y419010D03*
X762300Y410710D03*
X762000Y402410D03*
X762000Y394110D03*
X762100Y385810D03*
X762100Y377510D03*
X762100Y369210D03*
X762400Y360910D03*
X762100Y352610D03*
X762100Y344310D03*
X762000Y336010D03*
X762000Y327710D03*
X762000Y319410D03*
X762300Y311110D03*
X761900Y302810D03*
X761900Y294510D03*
X761900Y286210D03*
D17*
X852170Y251460D03*
D19*
X877824Y359664D03*
X793750Y318770D03*
X811530Y276606D03*
X836676Y318516D03*
X845820Y330708D03*
X881380Y350520D03*
X798576Y405384D03*
X868680Y362712D03*
M02*
