G04 EAGLE Gerber RS-274X export*
G75*
%MOMM*%
%FSLAX34Y34*%
%LPD*%
%INSolderpaste Top*%
%IPPOS*%
%AMOC8*
5,1,8,0,0,1.08239X$1,22.5*%
G01*
G04 Define Apertures*
%ADD10R,0.560000X0.629100*%
%ADD11R,0.300000X0.800000*%
%ADD12R,0.800000X0.300000*%
%ADD13R,2.750000X2.750000*%
%ADD14R,6.000000X0.410000*%
D10*
X896854Y287020D03*
X906546Y287020D03*
D11*
X853640Y289880D03*
X858640Y289880D03*
X863640Y289880D03*
X868640Y289880D03*
X873640Y289880D03*
X878640Y289880D03*
D12*
X886140Y297380D03*
X886140Y302380D03*
X886140Y307380D03*
X886140Y312380D03*
X886140Y317380D03*
X886140Y322380D03*
D11*
X878640Y329880D03*
X873640Y329880D03*
X868640Y329880D03*
X863640Y329880D03*
X858640Y329880D03*
X853640Y329880D03*
D12*
X846140Y322380D03*
X846140Y317380D03*
X846140Y312380D03*
X846140Y307380D03*
X846140Y302380D03*
X846140Y297380D03*
D13*
X866140Y309880D03*
D14*
X762000Y435610D03*
X762000Y427310D03*
X762000Y419010D03*
X762300Y410710D03*
X762000Y402410D03*
X762000Y394110D03*
X762100Y385810D03*
X762100Y377510D03*
X762100Y369210D03*
X762400Y360910D03*
X762100Y352610D03*
X762100Y344310D03*
X762000Y336010D03*
X762000Y327710D03*
X762000Y319410D03*
X762300Y311110D03*
X761900Y302810D03*
X761900Y294510D03*
X761900Y286210D03*
M02*
